PathFileType	4	(X/Y/Z)	Walk6.trc
DataRate	CameraRate	NumFrames	NumMarkers	Units	OrigDataRate	OrigDataStartFrame	OrigNumFrames
200.000000	200.000000	4	58	mm	200.000000	512	597
Frame#	Times		LBHD		LACR1		RMT5		LElbowM		RTH2		RTB3		LWRU		RToe		RTB2		RMT1		C7		LCAR		RCAL		RCAR		LASI		RFA1		RLFC		RWRU		LLFC		LTH3		LTH4		RElbow		RElbowM		LPSI		LTH2		RPSI		LTB2		RASI		LCAL		LMMAL		LFHD		T10		LMT5		LToe		RBHD		LUA1		LMT1		RTH3		RLMAL		RBack		RMFC		LTB1		LTB3		LTH1		LMFC		RFHD		RTB1		LTB4		RUA1		RTH1		RTH4		RTB4		LLMAL		RWRR		LWRR		RACR1		LElbow		RMMAL
			X1	Y1	Z1	X2	Y2	Z2	X3	Y3	Z3	X4	Y4	Z4	X5	Y5	Z5	X6	Y6	Z6	X7	Y7	Z7	X8	Y8	Z8	X9	Y9	Z9	X10	Y10	Z10	X11	Y11	Z11	X12	Y12	Z12	X13	Y13	Z13	X14	Y14	Z14	X15	Y15	Z15	X16	Y16	Z16	X17	Y17	Z17	X18	Y18	Z18	X19	Y19	Z19	X20	Y20	Z20	X21	Y21	Z21	X22	Y22	Z22	X23	Y23	Z23	X24	Y24	Z24	X25	Y25	Z25	X26	Y26	Z26	X27	Y27	Z27	X28	Y28	Z28	X29	Y29	Z29	X30	Y30	Z30	X31	Y31	Z31	X32	Y32	Z32	X33	Y33	Z33	X34	Y34	Z34	X35	Y35	Z35	X36	Y36	Z36	X37	Y37	Z37	X38	Y38	Z38	X39	Y39	Z39	X40	Y40	Z40	X41	Y41	Z41	X42	Y42	Z42	X43	Y43	Z43	X44	Y44	Z44	X45	Y45	Z45	X46	Y46	Z46	X47	Y47	Z47	X48	Y48	Z48	X49	Y49	Z49	X50	Y50	Z50	X51	Y51	Z51	X52	Y52	Z52	X53	Y53	Z53	X54	Y54	Z54	X55	Y55	Z55	X56	Y56	Z56	X57	Y57	Z57	X58	Y58	Z58

512	2.56	519.99	1606.3	-35.04	557.18	1406.2	-134.12	225.12	37.012	145.92	420.88	1093.6	-250.35	542.46	638.64	145.24	292.89	224.05	76.365	403.29	812.22	-254.36	309.88	20.82	107.43	349.54	291.6	152	264.14	31.561	70.075	470.89	1472	34.707	464.35	774.89	-232.09	106.81	155.72	63.96	611.23	792.52	312.33	572.47	1023.3	-120.28	509.27	919.19	320.03	467.88	494.93	161.04	539.95	803.27	287.48	618.57	521.38	-92.83	617.16	583.39	-98.669	595.05	673.52	-121.38	463.01	1074.1	320.94	426.41	1076.9	243.81	371.86	1032.2	-18.827	643.95	694.34	-70.297	362.11	1034.1	50.076	674.79	310.09	-77.3	541.98	981.65	184.45	585.57	32.85	-21.719	666.98	71.068	18.197	699.51	1614	0.95218	384.52	1216.2	31.045	768.2	27.55	-76.761	841.82	56.396	-12.188	516	1604.2	101.73	490.31	1215.4	-213.06	799.27	31.566	0.80268	474.22	542.01	165.53	166.18	153.42	126.53	446.77	1360.7	189.37	438.79	469	37.207	671.89	402.11	-4.2257	675.39	216.78	-7.811	571.55	761.7	-140.03	592.24	492.91	32.071	697.11	1614.5	76.017	427.29	352.67	80.29	672.58	309.35	-5.0777	539.15	1232.9	276.6	477.29	729.71	196.64	479.46	635.05	184.35	357.17	285.4	76.049	651.64	60.935	-66.226	612.5	840.48	265.01	442.85	811.14	-188.69	577.74	1411.6	190.08	372.65	1097	-179.99	194.51	141.56	49.639
513	2.565	525.23	1606.7	-35.758	562.57	1406.7	-134.68	228.6	39.397	146.06	427.51	1093.4	-250.74	551.05	639.22	144.99	300.07	226.57	77.651	411.23	811.99	-254.88	311.08	20.983	107.59	357.75	293.66	153.05	265.99	32.691	70.269	476.16	1472.5	34.025	472.47	774.91	-232.66	113.23	162.18	65.805	613.89	792.29	311.65	577.58	1023.8	-120.82	512.72	919.61	319.14	478.3	494.84	161.76	542.75	803.5	286.6	622.47	521.57	-93.149	621.84	584.11	-98.78	599.93	674.26	-121.61	467.35	1074.7	319.92	430.85	1077.8	242.73	376.93	1032.6	-19.248	648.71	695.01	-70.37	367.16	1034.3	49.637	677.13	309.74	-77.432	547.25	982.04	183.63	585.72	32.973	-21.762	667.23	70.952	18.287	704.76	1614.3	0.10668	389.62	1216.7	30.368	768.42	27.28	-77.096	842.9	55.269	-12.459	521.33	1604.6	101.01	496.54	1215.5	-213.48	799.71	31.446	0.81527	484.1	541.8	165.91	172.53	157.89	128.13	451.98	1361.2	188.75	449.14	468.68	37.598	674.87	401.89	-4.4722	676.86	216.52	-7.8443	576.63	762.44	-140.44	596.07	493.65	31.823	702.42	1614.9	75.168	436.33	353.27	81.178	674.8	309.12	-5.2253	544.07	1233.3	275.73	484.86	729.75	196.37	488.18	635	184.36	365.22	287	77.108	651.89	60.807	-66.19	615.6	840.24	264.4	452.64	811.5	-190.23	583.01	1412	189.34	379.33	1096.6	-180.33	200.46	145.62	51.108
514	2.57	530.43	1607	-36.446	567.94	1407.1	-135.22	232.6	41.941	146.23	434.16	1093.3	-251.15	559.71	639.83	144.76	307.54	229.1	78.897	419.29	811.76	-255.38	312.78	21.242	107.8	366.26	295.7	154.05	268.31	34.025	70.482	481.39	1473	33.364	480.72	774.96	-233.23	119.98	168.48	67.716	616.53	792.04	310.98	582.64	1024.4	-121.36	516.16	920	318.24	488.82	494.8	162.47	545.54	803.72	285.72	626.18	521.7	-93.479	626.23	584.68	-99.003	604.6	674.88	-121.92	471.67	1075.4	318.95	435.26	1078.7	241.67	381.97	1032.9	-19.666	653.39	695.49	-70.621	372.18	1034.5	49.194	679.41	309.4	-77.551	552.47	982.4	182.86	585.85	33.081	-21.805	667.46	70.843	18.376	709.97	1614.5	-0.71268	394.7	1217.1	29.692	768.64	27.045	-77.418	843.93	54.154	-12.736	526.62	1605	100.33	502.77	1215.6	-213.91	800.13	31.35	0.87011	494.06	541.65	166.29	179.26	162.28	129.74	457.15	1361.7	188.15	459.65	468.45	37.961	677.76	401.65	-4.7073	678.28	216.27	-7.8696	581.61	763.1	-140.87	599.65	494.41	31.605	707.71	1615.2	74.347	445.56	353.95	82.011	676.96	308.89	-5.3614	548.95	1233.8	274.87	492.51	729.83	196.12	497	634.99	184.38	373.51	288.64	78.121	652.12	60.688	-66.15	618.68	839.99	263.79	462.73	811.97	-191.82	588.24	1412.4	188.63	386.02	1096.2	-180.7	206.74	149.65	52.552
515	2.575	535.6	1607.3	-37.104	573.27	1407.6	-135.73	237.14	44.625	146.46	440.82	1093	-251.59	568.41	640.5	144.54	315.26	231.63	80.085	427.45	811.51	-255.87	315.07	21.62	108.05	375.02	297.72	154.98	271.19	35.571	70.725	486.57	1473.4	32.724	489.1	775.04	-233.8	127.03	174.57	69.676	619.15	791.78	310.31	587.66	1024.9	-121.9	519.57	920.37	317.35	499.4	494.82	163.17	548.31	803.93	284.83	629.72	521.77	-93.814	630.31	585.11	-99.345	609.05	675.39	-122.3	475.95	1076	318.01	439.64	1079.6	240.61	386.98	1033.3	-20.085	657.96	695.76	-71.058	377.18	1034.7	48.745	681.65	309.05	-77.653	557.64	982.73	182.14	585.95	33.176	-21.847	667.67	70.74	18.464	715.15	1614.8	-1.5032	399.74	1217.6	29.022	768.85	26.838	-77.726	844.92	53.048	-13.013	531.87	1605.5	99.67	509	1215.6	-214.34	800.53	31.267	0.96991	504.08	541.57	166.68	186.34	166.57	131.33	462.27	1362.3	187.56	470.3	468.34	38.291	680.59	401.4	-4.926	679.66	216.01	-7.8859	586.47	763.67	-141.34	602.93	495.16	31.433	712.95	1615.5	73.555	454.95	354.72	82.768	679.06	308.65	-5.4823	553.79	1234.2	274.03	500.21	729.95	195.88	505.87	635.03	184.41	382	290.32	79.07	652.34	60.578	-66.104	621.75	839.73	263.19	473.06	812.53	-193.46	593.41	1412.7	187.94	392.71	1095.8	-181.12	213.31	153.64	53.958
